# xmcd
#
# Track frame offsets:
#	150
#	17553
#	37217
#	55844
#	74317
#	89053
#	107008
#	124099
#	141328
#	151813
#	168885
#	187467
#	207817
#	232669
#
# Disc length: 3271 seconds
#
# Revision: 0
# Processed by: cddbd v1.5.2PL0 Copyright (c) Steve Scherf et al.
# Submitted via: dBpowerAMP V4.0
#
DISCID=c20cc50e
DTITLE=Georg Danzer - Träumer
DYEAR=2006
DGENRE=Austropop
TTITLE0=Träumer
TTITLE1=Menschenkinder
TTITLE2=Wunderland
TTITLE3=Alles was i brauch
TTITLE4=Unsichtbar
TTITLE5=I fürcht mi ned
TTITLE6=Lass mi da ned lana
TTITLE7=Mei Aschen
TTITLE8=Ein Tampon und ein Kondom
TTITLE9=Es tuat ma lad
TTITLE10=Stell da vor
TTITLE11=Schwester MAria
TTITLE12=De glaubn, i hörs ned
TTITLE13=A letztes Liad
EXTD=
EXTT0=
EXTT1=
EXTT2=
EXTT3=
EXTT4=
EXTT5=
EXTT6=
EXTT7=
EXTT8=
EXTT9=
EXTT10=
EXTT11=
EXTT12=
EXTT13=
PLAYORDER=
